PathFileType	4	(X/Y/Z)	OpenSim_Sub02_CSStiffKnee_Gyro.trc
DataRate	CameraRate	NumFrames	NumMarkers	Units	OrigDataRate	OrigDataStartFrame	OrigNumFrames
100	100	27	8	m	100	6030	6891
Frame#	Time	torso_imu_offset_imu	pelvis_imu_offset_imu	tibia_r_imu_offset_imu	femur_r_imu_offset_imu	tibia_l_imu_offset_imu	femur_l_imu_offset_imu	toes_r_imu_offset_imu	toes_l_imu_offset_imu
				X1	Y1	Z1	X2	Y2	Z2	X3	Y3	Z3	X4	Y4	Z4	X5	Y5	Z5	X6	Y6	Z6	X7	Y7	Z7	X8		Y8	Z8	

6030	60.29000000	-0.04435597	0.07725262	-0.04497046	-0.16995709	-0.12831112	0.13730683	-0.15126473	0.19265723	-1.25094993	0.18915621	0.03690674	-0.32403235	0.90884488	0.09755387	0.48795155	0.18778591	-0.41499860	-0.24832673	-0.12909286	-0.99588904	-0.04948524	-0.58718782	-0.12962455	1.54746983
6031	60.30000000	-0.09645346	0.09453593	-0.01993089	-0.20577963	-0.09093515	0.17898534	-0.18814700	0.19352349	-1.38586167	0.34421644	0.06965192	-0.24515454	0.40834043	0.63751535	1.63215262	0.01892765	-0.29171625	-0.37941248	-0.17730566	-1.18899695	-0.05426027	-0.54194034	0.27676881	0.10863069
6032	60.31000000	-0.14508542	0.12297058	-0.00287183	-0.27936900	-0.09546786	0.22656112	-0.25529368	0.17640767	-1.51751469	0.45939633	0.09686251	-0.11473545	-0.43543124	0.52743671	2.63363080	-0.08708338	-0.03758411	-0.40569370	-0.11998822	-1.39295703	-0.04573261	0.13504529	0.41027861	-0.46397076
6033	60.32000000	-0.22163147	0.15236410	0.01153755	-0.42756519	-0.08170923	0.27366898	-0.33407602	0.16968795	-1.64917335	0.63289935	0.13272164	0.06529036	-0.54734462	0.15513665	2.29012538	-0.04392173	0.15525591	-0.23785825	-0.12526284	-1.59087133	-0.03756749	0.34958810	-0.32081565	-0.01335923
6034	60.33000000	-0.32445295	0.18237798	0.00886460	-0.62292275	-0.02919137	0.27422094	-0.42173455	0.15945807	-1.84338153	0.82956731	0.23096689	0.27798304	0.56822645	0.45142666	0.48866339	-0.07363202	0.05455015	0.20932764	-0.20689710	-1.85573291	-0.01446428	0.66373908	0.21569130	-0.26188709
6035	60.34000000	-0.44148231	0.17621312	-0.03835604	-0.74568565	0.00619963	0.21165780	-0.53743573	0.10499850	-2.11296107	0.92522873	0.39717373	0.51685798	1.39531525	0.53305187	-0.58991834	-0.09725245	-0.24442600	0.88293825	-0.23363796	-2.27232032	-0.01313890	0.26421609	0.28468771	-0.38444266
6036	60.35000000	-0.55534317	0.11416992	-0.11075185	-0.78025823	0.05815626	0.10269985	-0.67177575	0.06436278	-2.37700911	0.87300090	0.62739575	0.75986221	0.61320308	-0.31884723	-0.02283643	0.14822911	-0.60328567	1.34989498	-0.38547732	-2.80880357	-0.03255553	0.29859178	0.21801706	-0.09646118
6037	60.36000000	-0.60536698	0.04495681	-0.18196196	-0.76701617	0.14177700	-0.03700676	-0.76058158	0.08144550	-2.60164099	0.71996988	0.89147090	1.03395593	-0.29577852	-0.55487706	0.43295443	0.67274376	-0.65721140	1.43040720	-0.33374646	-3.49965483	-0.05576817	0.01096343	0.21573600	0.05904098
6038	60.37000000	-0.62609288	-0.03569579	-0.24992829	-0.71339697	0.20780115	-0.17168194	-0.76064902	0.18531065	-2.78661685	0.52288211	1.14258344	1.35228987	-0.56463032	-0.26369740	0.40296466	1.00890258	-0.50668884	1.25331082	-0.32858653	-4.33908157	-0.09515095	-0.23695565	0.25006004	0.16055683
6039	60.38000000	-0.63826380	-0.12566442	-0.33798590	-0.64587431	0.24845570	-0.27748233	-0.60190456	0.37470137	-2.92721299	0.34774784	1.33514507	1.70777719	-0.93300216	-0.42539281	0.45932935	1.03368810	-0.25682671	0.87547467	-0.46159492	-5.21973140	-0.16297277	-0.17385134	0.24390668	0.18677389
6040	60.39000000	-0.66222199	-0.21612918	-0.40849459	-0.60801897	0.30547521	-0.35119488	-0.44872088	0.56949547	-2.99917164	0.23909065	1.39108395	2.04049577	-0.26108510	-0.26949383	0.46560392	0.67551547	-0.06473185	0.76976426	-0.03220851	-5.75386605	-0.37044159	-0.20789251	0.22689099	0.14696821
6041	60.40000000	-0.69601751	-0.29710133	-0.44588011	-0.56115874	0.36369737	-0.38194448	-0.39631318	0.67840107	-2.96947798	0.24672945	1.36509416	2.31864643	0.48039478	-0.06653265	0.25794886	0.04778842	0.04336872	0.76911614	0.53617102	-5.96689253	-0.77587458	-0.09131361	0.18383568	0.03414711
6042	60.41000000	-0.72127172	-0.37475511	-0.44154304	-0.50466326	0.39923322	-0.37225033	-0.29913521	0.55137999	-2.83090729	0.08091055	1.36405866	2.53190170	0.53132249	-0.11226941	0.19345005	-0.58282496	0.02049989	0.80677859	0.64334929	-5.87178671	-1.41834120	0.04213689	0.13764966	-0.05513120
6043	60.42000000	-0.73281353	-0.42761952	-0.43550838	-0.45524446	0.43501269	-0.32130674	0.01268738	0.25783685	-2.56885224	-0.35468445	1.41630589	2.64403623	0.27403954	-0.06018454	0.31805194	-1.00199548	-0.05993597	0.78767710	1.52353244	-5.33386193	-1.85005899	0.06173877	0.10479465	-0.06852998
6044	60.43000000	-0.71549808	-0.44671325	-0.43015846	-0.44708625	0.47338593	-0.26562555	0.73133590	0.08721615	-2.20593499	-0.69826449	1.39566258	2.55216496	-0.28406846	-0.12220554	0.45484562	-1.19880839	-0.15896778	0.75940324	-0.72097447	-4.53917404	-1.93993250	0.04821662	0.03973876	-0.01716547
6045	60.44000000	-0.68207756	-0.44937488	-0.41000196	-0.41753468	0.51139640	-0.20545370	1.83437304	0.05579222	-1.87340914	-0.78364755	1.23989616	2.29022595	-0.66326766	-0.18114286	0.47035063	-1.22028921	-0.18722067	0.82798544	-4.10037277	-2.51710132	-2.07283769	-0.01730259	-0.00303036	0.04090005
6046	60.45000000	-0.64173604	-0.43786979	-0.37678762	-0.37655948	0.53646579	-0.14669961	2.81201078	-0.01055729	-1.58547077	-0.96354925	1.05133971	1.96088979	-0.61218993	-0.08571627	0.36993404	-1.07434616	-0.11085116	0.88206325	-1.29758497	0.49851844	-2.30249938	-0.04160586	-0.05864944	0.07870616
6047	60.46000000	-0.61061247	-0.40744229	-0.35821583	-0.44311363	0.52634762	-0.06683229	2.72270319	-0.30988388	-1.10658866	-1.26829550	0.99142462	1.70779365	-0.38175604	-0.02985310	0.34637227	-0.72285261	-0.04569696	0.90203046	-0.17271538	1.79349383	-2.34533250	-0.02188407	-0.09864683	0.09129145
6048	60.47000000	-0.59498002	-0.37723111	-0.34302987	-0.61764764	0.47521496	-0.00893581	0.77266168	-0.79580291	-0.12316398	-1.66992586	1.05192090	1.66795179	0.03574485	0.00461857	0.34548684	-0.28307624	0.00626626	0.84223343	0.14909825	2.02911022	-2.22217461	-0.02237162	-0.18774671	0.10584848
6049	60.48000000	-0.61053127	-0.34712012	-0.30863504	-0.80825107	0.37796425	0.01059043	-2.40574974	-1.18012568	1.19442908	-2.09252096	1.00925091	1.77946754	0.38847396	0.03076752	0.30008481	0.16531099	0.02590432	0.87908807	-1.13153573	2.17671773	-1.79955160	-0.03228222	-0.26538966	0.12849597
6050	60.49000000	-0.63922568	-0.33909258	-0.26804423	-0.93531121	0.30323853	0.01833651	-4.89072371	-1.28630482	2.22841532	-2.32927022	0.80944363	1.85336109	0.44361958	0.07105279	0.25323744	0.51142690	-0.10221999	0.90466906	-0.97009961	3.03170683	-1.17604638	-0.03910891	-0.32036812	0.14759000
6051	60.50000000	-0.67327077	-0.34841419	-0.25857425	-1.01620700	0.26654343	0.03320717	-5.55124738	-1.06893353	2.66378496	-2.15834316	0.58409322	1.80056652	0.26025354	0.08730191	0.24322804	0.73118796	-0.28182863	0.96500335	-0.61569726	3.68754712	-0.53715425	-0.07347119	-0.38097852	0.17061452
6052	60.51000000	-0.71536998	-0.34801964	-0.27166213	-1.09681245	0.22786044	0.04679520	-4.98759181	-0.86154259	2.81889904	-1.64867883	0.46793080	1.60594141	0.05772029	0.09034574	0.23552866	0.80922778	-0.38406962	1.02949716	-0.29597321	4.05668504	0.07544800	-0.06789359	-0.43021079	0.20264875
6053	60.52000000	-0.75888172	-0.39551139	-0.27256122	-1.12134925	0.20712798	0.07299110	-3.97171218	-0.84087147	2.95417253	-1.02018752	0.47336602	1.34464968	-0.11205770	0.06384144	0.24733629	0.79608742	-0.34686292	1.09722750	-0.47944707	4.25557668	0.60930284	-0.10907593	-0.49389497	0.23504732
6054	60.53000000	-0.78005707	-0.45542991	-0.27083883	-1.05162422	0.19445798	0.10322122	-3.00499284	-0.99660269	3.20618050	-0.37287406	0.51106862	1.14267794	-0.15066920	0.06083967	0.27240909	0.75376739	-0.22365556	1.09888318	-0.98742685	4.38447533	0.97695963	-0.12356141	-0.54256955	0.23533111
6055	60.54000000	-0.77086842	-0.45768148	-0.25896735	-0.97148877	0.16865285	0.14322773	-2.08051517	-1.15039290	3.60731344	0.23739393	0.50459494	1.01053839	-0.10008864	0.13352229	0.33815899	0.68878084	-0.12108337	1.00540356	-1.22316731	4.59828465	1.17196843	-0.10049563	-0.60633470	0.24133657
6056	60.55000000	-0.74890991	-0.46487835	-0.24463285	-0.87895609	0.12314350	0.18317979	-1.13028195	-1.12090789	4.02258629	0.73895896	0.48846595	0.84848864	0.01637031	0.17956666	0.40548748	0.61214581	-0.03643114	0.94622872	-1.38506327	4.86507016	1.20432062	-0.08687613	-0.65196210	0.25560997
